<?xml version="1.0" encoding="UTF-8"?>
<!DOCTYPE svg PUBLIC "-//W3C//DTD SVG 1.1//EN" "http://www.w3.org/Graphics/SVG/1.1/DTD/svg11.dtd">
<!-- Creator: CorelDRAW 2020 (64-Bit) -->
<svg xmlns="http://www.w3.org/2000/svg" xml:space="preserve" width="43.3493mm" height="43.3493mm" version="1.1" style="shape-rendering:geometricPrecision; text-rendering:geometricPrecision; image-rendering:optimizeQuality; fill-rule:evenodd; clip-rule:evenodd"
viewBox="0 0 4334.92 4334.92"
 xmlns:xlink="http://www.w3.org/1999/xlink"
 xmlns:xodm="http://www.corel.com/coreldraw/odm/2003">
 <defs>
  <style type="text/css">
   <![CDATA[
    .fil0 {fill:#FEFEFE}
    .fil1 {fill:#1D2431;fill-rule:nonzero}
   ]]>
  </style>
 </defs>
 <g id="Слой_x0020_1">
  <metadata id="CorelCorpID_0Corel-Layer"/>
  <rect class="fil0" x="-0" y="-0" width="4334.92" height="4334.92" rx="677.33" ry="677.33"/>
  <g id="_2193495040944">
   <g>
    <polygon class="fil1" points="2303.72,1011.8 3546.39,1011.8 3546.39,1302.39 2303.72,1302.39 "/>
    <path class="fil1" d="M3064.77 1882.1l478.71 0c0,342.66 0.32,708.68 4.81,1051.88 2.09,157.31 3.19,240.27 -72.52,316.42 -78.17,78.6 -174.82,78.52 -379.27,78.32l-645.64 0.55 1.78 -1736.28 289.46 0 -1.48 1443.76 516.09 -0.12c1.18,-631.76 -2.7,-360.88 -2.59,-863.93l-189.35 0 0 -290.6z"/>
   </g>
   <g>
    <path class="fil1" d="M2014.61 1299.73c-37.02,955.54 -361.49,1391.9 -1028.81,2023.8l-199.79 -210c609.55,-577.19 905.22,-948.27 939.14,-1824.01l289.46 10.21z"/>
    <polygon class="fil1" points="1251.69,2110.69 792.51,1128.25 1054.72,1005.66 1513.9,1988.1 "/>
   </g>
  </g>
 </g>
</svg>
